<svg width="138" height="25" viewBox="0 0 138 25" fill="none" xmlns="http://www.w3.org/2000/svg">
<g id="airbus-logo 1" clip-path="url(#clip0_298_9576)">
<path id="Vector" d="M63.6086 8.54016C63.6086 3.97815 60.5493 0.510836 54.2443 0.510836H41.5599V24.4888H47.5292V5.69312H54.2818C56.7813 5.69312 57.6765 7.0803 57.6765 8.6859C57.6765 10.3282 56.7438 11.6787 54.2443 11.6787H48.4618L56.6692 24.4888H63.4593C63.4593 24.4888 57.8629 15.8756 57.9004 15.8756C61.3701 15.073 63.6086 12.7007 63.6086 8.54016ZM31.5616 24.4891H37.5309V0.510836H31.5616V24.4891ZM12.4979 0.510836L0 24.4888H6.71511L8.73975 20.4743H18.8026L16.303 15.4377H11.2798L14.9971 8.06567H15.0721L23.4289 24.4888H30.2933L17.7953 0.510836H12.4979ZM85.397 12.0438C87.3 11.0218 88.3073 9.3795 88.3073 6.97058C88.3073 3.10214 85.3598 0.510836 80.3982 0.510836H66.4443V24.4888H80.9579C86.0314 24.4888 89.3517 21.8245 89.3517 17.7736C89.3517 14.9636 87.7476 12.8468 85.397 12.0438ZM72.4144 5.58376H80.3982C80.6812 5.5816 80.9618 5.63514 81.2233 5.74122C81.4847 5.84729 81.7217 6.00372 81.9201 6.20121C82.1185 6.39869 82.2743 6.6332 82.3782 6.89078C82.4821 7.14835 82.532 7.42374 82.5249 7.70055C82.5309 7.98019 82.4791 8.25814 82.3725 8.51767C82.2659 8.7772 82.1067 9.01294 81.9045 9.2107C81.7023 9.40847 81.4613 9.56416 81.196 9.66841C80.9307 9.77266 80.6465 9.82331 80.3607 9.81732H72.4144V5.58376ZM80.5471 19.4522H72.4144V14.5617H80.5471C80.8798 14.5471 81.212 14.5986 81.5237 14.7131C81.8354 14.8276 82.1202 15.0027 82.3608 15.2278C82.6014 15.453 82.7929 15.7235 82.9237 16.023C83.0544 16.3226 83.1218 16.6449 83.1217 16.9707C83.1265 17.301 83.0629 17.6289 82.9348 17.9345C82.8066 18.2402 82.6165 18.5173 82.376 18.7491C82.1354 18.981 81.8494 19.1628 81.5351 19.2837C81.2208 19.4045 80.8847 19.4619 80.5471 19.4522ZM108.192 13.9049C108.192 17.5443 106.476 19.5616 103.081 19.5616C99.7233 19.5616 98.007 17.5443 98.007 13.9049V0.510836H91.8888V13.467C91.8888 20.8758 95.8807 25 103.081 25C110.281 25 114.31 20.8758 114.31 13.467V0.510836H108.192V13.9049ZM130.24 10.0364C124.574 8.68656 123.339 8.55771 123.339 6.97059C123.339 5.74269 124.756 5.14594 127.144 5.14594C130.315 5.14594 133.692 5.92412 135.613 7.08032L137.515 2.18981C135.053 0.912361 131.434 0 127.219 0C120.914 0 117.369 3.06581 117.369 7.18968C117.369 11.6271 120.017 13.43 126.099 14.7078C130.835 15.7288 131.844 16.3663 131.844 17.6639C131.844 19.0736 130.539 19.708 127.965 19.708C124.546 19.7429 121.173 18.9398 118.153 17.3721L116.325 22.4814C119.272 24.0143 123.674 25 128.114 25C134.307 25 138 22.1896 138 17.4815C138 13.7039 135.502 11.2775 130.24 10.0364Z" fill="#939393"/>
</g>
<defs>
<clipPath id="clip0_298_9576">
<rect width="138" height="25" fill="white"/>
</clipPath>
</defs>
</svg>
