<svg width="78" height="80" viewBox="0 0 78 80" fill="none" xmlns="http://www.w3.org/2000/svg">
<g clip-path="url(#clip0_1008_3603)">
<path d="M38.1577 79.4638C16.9864 79.4638 0 61.5844 0 39.7321C0 17.8795 16.9864 0 38.1577 0C59.3296 0 76.3151 17.8795 76.3151 39.7321C76.3151 61.5844 59.3296 79.4638 38.1577 79.4638ZM38.1577 1.98664C18.2173 1.98664 1.72328 18.8727 1.72328 39.7321C1.72328 60.5917 17.971 77.4777 38.1577 77.4777C58.3449 77.4777 74.5921 60.5917 74.5921 39.7321C74.5921 18.8727 58.3449 1.98664 38.1577 1.98664ZM70.6533 50.9068H70.4069C70.4069 50.9068 71.638 46.9336 71.638 42.4637C71.638 37.7455 69.915 34.5173 67.2072 34.5173C65.7298 34.5173 64.745 35.7589 64.745 37.2489C64.745 40.2288 68.1919 40.4771 68.1919 46.9336C68.1919 49.6652 67.6992 52.1483 66.9608 54.88C63.022 68.538 50.7128 74.9948 38.4039 74.9948C32.7418 74.9948 28.8029 73.7525 27.5721 73.2558V73.0078L27.8182 72.759C28.3105 73.0078 31.7571 74.0013 35.9422 74.0013C40.6196 74.0013 43.3274 72.0143 43.3274 69.5314C43.3274 68.0412 42.3427 66.7998 40.8657 66.7998C37.9116 66.7998 37.6653 70.5241 31.7571 70.5241C29.2952 70.5241 26.8335 70.0274 24.1255 69.2827C10.3395 65.3096 4.18504 52.645 4.18504 39.7321C4.18504 33.524 5.90832 28.5574 5.90832 28.5574H6.15446L6.40067 28.8058C6.15445 29.3024 4.92361 32.779 4.92361 37.0005C4.92361 41.7186 6.89303 44.6986 9.35479 44.6986C10.5857 44.6986 11.8166 43.457 11.8166 41.9672C11.8166 38.987 8.37009 38.7388 8.37009 32.2823C8.37009 29.5507 8.86244 27.0675 9.60101 24.336C13.5398 10.678 25.8488 4.22156 38.1577 4.22156C43.8198 4.22156 48.7434 5.95983 48.9895 6.20811V6.45648L48.7434 6.70477C48.7434 6.70477 45.5431 5.46317 40.6196 5.46317C35.9422 5.46317 33.2342 7.4498 33.2342 9.93302C33.2342 11.1746 34.2189 12.6646 35.6959 12.6646C38.65 12.6646 38.8963 8.9397 44.8045 8.9397C47.2665 8.9397 49.7281 9.43636 52.4361 10.4297C65.7298 14.6512 71.638 27.5641 71.638 40.2288C72.3763 46.1886 70.6533 50.9068 70.6533 50.9068ZM52.4361 41.7186C48.7434 41.7186 46.0354 44.4503 46.0354 47.9269C46.0354 50.6585 47.7587 52.8933 49.7281 52.8933C50.4666 52.8933 51.2052 52.3968 51.2052 51.6518C51.2052 50.4102 49.4819 49.9135 49.4819 47.6786C49.4819 46.4368 50.7128 45.4435 51.9439 45.4435C54.4055 45.4435 55.6363 47.9269 55.6363 50.6585C55.6363 54.1349 52.9286 57.1146 49.2359 57.1146C44.8045 57.1146 41.8504 52.645 41.8504 47.9269C41.8504 40.9738 46.2818 38.2422 48.7434 37.4972C48.7434 37.4972 54.898 38.7388 54.6518 35.7589C54.6518 34.5173 52.9286 34.0206 51.4514 34.0206C49.9745 34.0206 48.7434 34.5173 48.7434 34.5173C48.0048 34.0206 47.5125 33.2756 47.0201 32.5307C51.4514 29.0541 54.4055 25.8258 54.4055 22.1009C54.4055 20.1143 53.1747 18.3762 50.7128 18.3762C46.2818 18.3762 43.0813 24.0877 43.0813 29.3024C43.0813 30.2957 43.0813 31.0407 43.3274 31.7858C40.6196 33.7723 38.65 35.2621 34.9573 37.4972C34.9573 37.0005 35.2036 35.7589 35.2036 34.2689C36.4345 33.0273 38.1577 30.544 38.1577 29.0541C38.1577 28.3091 37.9116 27.8126 36.9269 27.8126C34.7112 27.8126 33.2342 31.0407 32.9879 33.2756C32.0032 34.5173 30.0338 36.0072 28.5568 36.0072C27.3258 36.0072 26.8335 34.7656 26.8335 34.2689C30.7724 33.0273 35.9422 27.3158 35.9422 21.8526C35.9422 20.6111 35.6959 18.3762 32.2495 18.3762C27.5721 18.3762 23.387 25.8258 23.387 31.5372C21.6637 31.5372 20.9251 29.5507 20.9251 28.3091C20.9251 26.8191 21.4176 25.3292 21.4176 25.081C21.4176 24.5843 21.1714 24.0877 20.4329 24.0877C18.7096 24.0877 17.971 26.3225 17.971 28.8058C18.2173 32.2823 20.4329 34.5174 23.387 34.7656C23.6331 36.7522 25.6025 38.7388 27.8182 38.7388C29.2952 38.7388 31.0185 38.2423 32.0032 37.2489C31.7571 37.9938 31.7571 38.4905 31.7571 39.2355C27.0797 41.7186 23.6331 43.457 20.679 46.1886C18.2173 48.4234 16.7402 51.6518 16.7402 54.1349C16.7402 57.3633 18.7096 60.343 22.8947 60.343C27.5721 60.343 31.5109 56.3699 33.2342 50.6585C34.2189 47.9269 34.2189 44.202 34.7112 40.7254C39.6347 37.7455 41.8504 36.2556 44.5584 34.5173C44.8045 35.0139 45.0507 35.5106 45.5431 35.7589C43.3274 37.0005 37.9116 40.2288 37.9116 48.4234C37.9116 54.1349 41.6043 60.343 48.9895 60.343C55.1444 60.343 59.0832 55.1284 59.0832 50.1617C59.3296 45.9403 57.1138 41.7186 52.4361 41.7186ZM23.387 56.8666C21.6637 56.8666 20.9251 55.8731 20.9251 54.1349C20.9251 49.4167 27.0797 44.947 32.0032 42.4637C30.7724 49.1684 28.8029 56.6178 23.387 56.8666ZM26.8335 31.0407C26.8335 27.3158 30.2799 20.6111 32.2495 21.3561C34.9573 22.1009 30.2799 29.0541 26.8335 31.0407ZM46.774 29.3024C46.774 24.8325 49.7281 20.3628 51.4514 21.3561C53.1747 22.3493 49.9745 26.5708 46.774 29.3024ZM107.334 52.1483C98.9642 52.1483 96.2557 45.692 96.2557 39.4838C96.2557 33.0273 99.2098 26.3225 107.088 26.3225C109.796 26.3225 112.75 27.0675 114.719 29.0541C115.211 29.5507 115.211 29.5507 114.719 30.0474L113.735 31.289C113.488 31.7858 113.242 31.7858 112.75 31.5372C111.027 30.0474 109.058 29.3024 106.842 29.3024C101.426 29.3024 99.2098 34.0206 99.2098 39.7321C99.2098 45.4435 101.426 49.6652 107.334 49.6652C109.058 49.6652 111.273 49.1684 112.996 48.4234V41.2221H107.827C107.334 41.2221 107.088 40.9738 107.088 40.4771V39.2355C107.088 38.7388 107.334 38.4905 107.827 38.4905H115.211C115.704 38.4905 115.951 38.7388 115.951 39.2355V49.1684C115.951 49.6652 115.704 49.9135 115.458 50.1617C112.996 51.4035 110.042 52.1483 107.334 52.1483ZM122.105 51.9C121.612 51.9 121.366 51.6518 121.366 51.1551V27.3158C121.366 26.8191 121.612 26.5708 122.105 26.5708H134.906C135.398 26.5708 135.645 26.8191 135.645 27.3158V28.5574C135.645 29.0541 135.398 29.3024 134.906 29.3024H124.567V37.4972H133.922C134.414 37.4972 134.66 37.7455 134.66 38.2423V39.4838C134.66 39.9804 134.414 40.2288 133.922 40.2288H124.567V49.1684H135.152C135.645 49.1684 135.891 49.4167 135.891 49.9135V51.1551C135.891 51.6518 135.645 51.9 135.152 51.9H122.105ZM147.215 51.9C146.723 51.9 146.723 51.6518 146.723 51.4035V50.9068C149.431 41.9672 151.893 34.2689 155.092 27.3158C155.339 27.0676 155.585 26.8191 156.077 26.8191H157.308C157.801 26.8191 158.047 27.0676 158.293 27.3158C161.74 35.0139 164.448 42.7119 166.663 50.9068C166.663 51.1551 166.91 51.4035 166.91 51.4035C166.91 51.9 166.663 51.9 166.417 51.9H164.694C164.201 51.9 163.956 51.6518 163.709 51.4035C163.216 49.1684 162.478 47.1819 161.986 45.1952H151.4C150.908 47.1819 150.169 49.4167 149.677 51.4035C149.431 51.9 149.184 51.9 148.939 51.9H147.215ZM156.57 30.0474C155.092 33.7723 153.616 37.9938 152.138 42.4637H161.002C159.77 38.2423 158.293 34.0206 156.57 30.0474ZM175.034 51.6518C174.542 51.6518 174.295 51.4035 174.049 51.1551C171.833 47.1819 169.371 40.4771 168.14 34.7656C168.14 34.5174 167.894 34.2689 167.894 34.0206C167.894 33.7723 168.14 33.524 168.386 33.524H170.109C170.602 33.524 170.849 33.7723 170.849 34.0206C171.833 38.7388 173.557 44.6986 175.526 48.1752C177.495 44.4503 179.218 38.7388 180.448 34.0206C180.448 33.524 180.695 33.524 181.187 33.524H182.419C182.911 33.524 182.911 33.7723 182.911 34.0206C182.911 34.2689 182.911 34.5174 182.666 34.7656C181.433 40.4771 178.972 47.1819 176.757 51.1551C176.51 51.4035 176.264 51.6518 175.772 51.6518H175.034ZM188.081 29.3024C186.849 29.3024 186.111 28.3092 186.111 27.0675C186.111 25.8258 186.849 24.8325 188.081 24.8325C189.311 24.8325 190.05 25.8258 190.05 27.0675C190.05 28.3092 189.311 29.3024 188.081 29.3024ZM187.342 51.6518C186.849 51.6518 186.604 51.4035 186.604 50.9068V34.0206C186.604 33.524 186.849 33.2756 187.342 33.2756H188.819C189.311 33.2756 189.557 33.524 189.557 34.0206V50.9068C189.557 51.4035 189.311 51.6518 188.819 51.6518H187.342ZM206.052 51.6518C205.56 51.6518 205.313 51.4035 205.313 50.9068V49.4167C204.329 50.9068 202.606 52.1483 199.897 52.1483C196.205 52.1483 194.236 49.9135 194.236 46.6853C194.236 43.457 196.451 40.9738 201.129 40.9738C202.852 40.9738 204.329 41.4704 205.313 41.7186V40.2288C205.313 37.9938 204.575 35.5106 201.129 35.5106C199.404 35.5106 197.681 36.0072 196.697 37.0005C196.205 37.4972 196.205 37.2489 195.713 36.7522L195.22 35.7589C194.974 35.2621 194.974 35.0139 195.466 34.7656C196.943 33.524 199.158 32.779 201.622 32.779C206.298 32.779 208.267 35.5106 208.267 39.2355V50.4102C208.267 50.9068 208.021 51.1551 207.528 51.1551L206.052 51.6518ZM205.067 47.1819V43.9537C204.083 43.457 202.36 43.457 201.375 43.457C197.928 43.457 196.943 44.6986 196.943 46.6853C196.943 48.1752 197.681 49.6652 200.389 49.6652C202.114 49.9135 203.837 49.1684 205.067 47.1819ZM211.961 36.0072C211.469 36.0072 211.222 35.7589 211.222 35.2621V34.2689C211.222 33.7723 211.469 33.524 211.961 33.524H214.422V29.3024C214.422 28.8058 214.668 28.5574 215.16 28.5574H216.637C217.13 28.5574 217.375 28.8058 217.375 29.3024V33.524H222.3C222.792 33.524 223.038 33.7723 223.038 34.2689V35.2621C223.038 35.7589 222.792 36.0072 222.3 36.0072H217.375V46.6853C217.375 48.6719 217.868 49.6652 219.593 49.6652C220.331 49.6652 221.069 49.4167 221.561 49.1684C222.054 48.9201 222.054 48.9201 222.3 49.4167L222.792 50.4102C223.038 50.9068 222.792 51.1551 222.3 51.4035C221.316 51.9 220.085 52.1483 218.852 52.1483C215.899 52.1483 213.93 50.9068 213.93 46.6853V36.0072H211.961ZM227.715 29.3024C226.484 29.3024 225.746 28.3092 225.746 27.0675C225.746 25.8258 226.484 24.8325 227.715 24.8325C228.947 24.8325 229.685 25.8258 229.685 27.0675C229.685 28.3092 229.193 29.3024 227.715 29.3024ZM226.977 51.6518C226.484 51.6518 226.238 51.4035 226.238 50.9068V34.0206C226.238 33.524 226.484 33.2756 226.977 33.2756H228.454C228.947 33.2756 229.193 33.524 229.193 34.0206V50.9068C229.193 51.4035 228.947 51.6518 228.454 51.6518H226.977ZM241.748 52.1483C236.085 52.1483 233.624 47.4302 233.624 42.7119C233.624 37.9938 236.085 33.2756 241.748 33.2756C247.411 33.2756 249.872 37.9938 249.872 42.7119C249.872 47.6786 247.411 52.1483 241.748 52.1483ZM241.748 49.9135C245.44 49.9135 246.671 46.6853 246.671 42.7119C246.671 38.987 245.194 35.5106 241.748 35.5106C238.056 35.5106 236.824 38.7388 236.824 42.7119C236.824 46.6853 238.056 49.9135 241.748 49.9135ZM254.795 52.1483C254.302 52.1483 254.057 51.9 254.057 51.4035V34.2689C254.057 33.7723 254.302 33.524 254.795 33.524H256.025C256.518 33.524 256.765 33.7723 256.765 34.2689V35.7589C257.75 34.5173 259.473 33.2756 262.181 33.2756C266.367 33.2756 268.09 36.2556 268.09 40.2288V51.1551C268.09 51.6518 267.843 51.9 267.351 51.9H265.872C265.38 51.9 265.134 51.6518 265.134 51.1551V40.4771C265.134 38.2423 264.396 35.7589 261.442 35.7589C259.473 35.7589 257.75 36.7522 256.765 38.2423V51.1551C256.765 51.6518 256.518 51.9 256.025 51.9H254.795C254.795 52.1483 254.795 52.1483 254.795 52.1483Z" fill="#939393"/>
</g>
<defs>
<clipPath id="clip0_1008_3603">
<rect width="78" height="80" fill="white"/>
</clipPath>
</defs>
</svg>
