<svg width="95" height="36" viewBox="0 0 95 36" fill="none" xmlns="http://www.w3.org/2000/svg">
<g clip-path="url(#clip0_1008_3615)">
<mask id="mask0_1008_3615" style="mask-type:luminance" maskUnits="userSpaceOnUse" x="0" y="0" width="95" height="36">
<path d="M95 0H0V36H95V0Z" fill="white"/>
</mask>
<g mask="url(#mask0_1008_3615)">
<mask id="mask1_1008_3615" style="mask-type:luminance" maskUnits="userSpaceOnUse" x="0" y="0" width="96" height="36">
<path d="M95.0014 0H0V36H95.0014V0Z" fill="white"/>
</mask>
<g mask="url(#mask1_1008_3615)">
<path fill-rule="evenodd" clip-rule="evenodd" d="M76.2439 11.5016C76.2439 6.97745 79.63 4.79095 83.2811 4.79095C84.1903 4.7231 85.1034 4.84832 85.9606 5.15833C86.818 5.46833 87.6001 5.9562 88.2558 6.58992C88.9113 7.22352 89.4255 7.98868 89.7652 8.83529C90.1038 9.68178 90.2604 10.5904 90.2235 11.5016H76.2439ZM82.6354 0C75.1947 0 70.3242 5.16858 70.3242 13.6932C70.3242 24.2747 77.7736 27.3104 83.0939 27.3104C85.0768 27.3073 87.0384 26.8988 88.8579 26.1103C90.6772 25.3216 92.317 24.1693 93.6747 22.7242L90.2477 19.2443C89.3023 20.1316 88.1915 20.8221 86.978 21.276C85.7645 21.7298 84.473 21.9378 83.1784 21.888C79.0311 21.888 76.2356 19.4318 76.2356 16.0716H94.7156C94.7156 16.0716 97.9434 0 82.6354 0Z" fill="#939393"/>
<path fill-rule="evenodd" clip-rule="evenodd" d="M15.478 11.0427C13.1752 10.7434 6.50283 11.0131 6.50283 7.85314C6.50283 5.97963 9.2991 4.97163 11.8776 4.97163C14.5928 4.9335 17.2544 5.72976 19.503 7.25283L22.9646 3.65489C19.8003 1.19444 15.884 -0.0976489 11.8776 -0.00295419C6.18639 -0.00295419 1.06609 3.08995 1.06609 8.05059C1.06609 15.6616 9.90193 15.6594 13.5917 16.0341C15.8261 16.2607 17.867 16.4207 17.867 18.698C17.867 20.8153 14.7461 21.9933 12.3302 21.9933C10.7311 22.0419 9.1395 21.7556 7.65759 21.1526C6.17568 20.5495 4.83622 19.6431 3.72521 18.4916L0 22.3681C1.57196 23.9504 3.44412 25.2025 5.50652 26.0507C7.56904 26.8989 9.7801 27.3262 12.0099 27.3075C18.614 27.3075 23.4419 24.2784 23.4419 18.1833C23.4419 14.1429 20.8291 11.7375 15.478 11.0427Z" fill="#939393"/>
<path fill-rule="evenodd" clip-rule="evenodd" d="M40.3921 17.2346C40.3921 22.2924 36.9127 22.0199 33.8054 22.0199C30.6602 22.0199 28.6517 21.1524 28.6517 18.8848C28.6517 16.7714 30.2877 16.0711 33.6677 16.0711H40.3921V17.2346ZM34.5781 8.73785e-05C30.8583 -0.0122391 27.2518 1.27996 24.3856 3.65217L27.8786 7.27061C29.8045 5.77243 32.1823 4.97352 34.6217 5.0052C39.0352 5.0052 40.3527 6.82824 40.3527 8.88999V11.4576L32.4858 11.4625C29.5772 11.4625 23.8555 12.2216 23.8555 18.8534C23.8555 23.7249 26.5525 27.3104 32.9906 27.3104C34.3806 27.3929 35.7705 27.1484 37.0491 26.5966C38.3275 26.0448 39.459 25.2009 40.3527 24.1327V26.7768H46.0636V9.28213C46.0636 3.16383 42.4423 8.73785e-05 34.5781 8.73785e-05Z" fill="#939393"/>
<path fill-rule="evenodd" clip-rule="evenodd" d="M63.9746 13.2237C64.0249 14.622 63.9593 16.022 63.7784 17.4093C63.388 18.5976 62.609 19.6198 61.567 20.3111C60.5251 21.0024 59.2807 21.3227 58.0347 21.2203C57.1657 21.2203 52.7131 20.7321 52.2143 16.9576C52.071 15.7184 52.0118 14.4709 52.037 13.2237C51.9667 11.678 52.0597 10.1293 52.3146 8.6031C52.7383 7.45248 53.5267 6.47201 54.5596 5.81156C55.5922 5.151 56.8128 4.84676 58.0347 4.94514C62.2412 4.94514 63.5922 7.75004 63.79 8.83419C63.9501 10.2916 64.0118 11.758 63.9746 13.2237ZM63.9746 0.543569V3.38971C63.0457 2.27906 61.8747 1.39593 60.5517 0.808182C59.2287 0.22043 57.7888 -0.0562779 56.3422 -0.000866532C50.7862 -0.000866532 47.9251 3.0486 46.9564 6.29552C46.5254 8.5743 46.363 10.8957 46.4727 13.2122C46.4727 16.4213 46.5026 19.3395 47.6431 21.5836C48.4798 22.9315 49.6148 24.0691 50.9606 24.9087C52.3062 25.7482 53.8267 26.2674 55.4048 26.4261C56.9827 26.5848 58.5763 26.3787 60.0622 25.8239C61.548 25.269 62.8865 24.3801 63.9747 23.2258V24.8192C64.019 25.6001 63.8706 26.3801 63.543 27.0903C63.2153 27.8006 62.7183 28.4195 62.0955 28.8925C60.6985 29.9778 58.963 30.5345 57.1958 30.4642C55.4447 30.3537 53.7618 29.7455 52.3445 28.7108L48.4055 32.5651C50.906 34.6726 54.0401 35.8814 57.3076 35.9987C60.4775 36.0818 63.577 35.0557 66.0715 33.0972C67.3263 31.9997 68.3219 30.6373 68.9865 29.1083C69.651 27.5792 69.9681 25.9216 69.9146 24.2551V0.543569H63.9746Z" fill="#939393"/>
</g>
</g>
</g>
<defs>
<clipPath id="clip0_1008_3615">
<rect width="95" height="36" fill="white"/>
</clipPath>
</defs>
</svg>
