<svg width="89" height="47" viewBox="0 0 89 47" fill="none" xmlns="http://www.w3.org/2000/svg">
<g clip-path="url(#clip0_1008_3597)">
<path d="M70.0454 1.32494L63.6967 27.2712L57.33 1.32494H38.9411V10.906C36.7067 2.52173 28.5094 0.418888 21.1848 0.299435C12.254 0.182232 2.35852 4.07013 2.01529 15.9343H14.3672C14.3672 12.353 17.6313 10.302 20.7137 10.3538C24.4983 10.3223 26.2392 11.945 26.3267 14.4716C26.1965 16.6646 24.9088 18.1904 20.7451 18.1904H16.5904V26.8001H20.3615C22.5039 26.8001 25.4854 27.9721 25.602 31.0374C25.7456 34.6909 23.2173 36.2956 20.1058 36.3271C14.5512 36.1198 13.1177 31.833 13.1177 28.1457H0.296875C0.350716 30.6294 0.269955 46.8188 20.3638 46.6994C29.9901 46.7873 36.9961 42.7213 38.9725 37.116V45.7077H51.338V17.7149L58.1758 45.7077H69.2244L76.0868 17.7464V45.7324H88.7035V1.32494H70.0454ZM38.9815 27.2103C37.4066 23.9378 35.1902 22.5066 33.9429 22.0535C36.5609 20.8838 37.9316 19.2971 38.9815 16.1349V27.2103Z" fill="#939393"/>
</g>
<defs>
<clipPath id="clip0_1008_3597">
<rect width="89" height="47" fill="white"/>
</clipPath>
</defs>
</svg>
