<svg width="140" height="34" viewBox="0 0 140 34" fill="none" xmlns="http://www.w3.org/2000/svg">
<g clip-path="url(#clip0_1008_3605)">
<mask id="mask0_1008_3605" style="mask-type:luminance" maskUnits="userSpaceOnUse" x="0" y="0" width="140" height="34">
<path d="M140 0H0V34H140V0Z" fill="white"/>
</mask>
<g mask="url(#mask0_1008_3605)">
<path fill-rule="evenodd" clip-rule="evenodd" d="M12.4113 8.25948C12.1469 8.25976 11.8842 8.21717 11.6334 8.13337C11.1962 7.96756 10.8064 7.69681 10.4984 7.34496C10.1905 6.9931 9.97378 6.57094 9.86745 6.11565C9.6036 5.12465 9.64512 4.07711 9.98658 3.11009C10.2997 2.13326 10.9006 1.27372 11.7105 0.643985C12.0716 0.352416 12.4982 0.1529 12.9535 0.0625915C13.4088 -0.0277164 13.8793 -0.00611354 14.3244 0.125543C14.7588 0.289906 15.1467 0.557621 15.4544 0.905525C15.7621 1.25343 15.9803 1.67105 16.0903 2.12224C16.3519 3.11395 16.3079 4.1615 15.9642 5.12781C15.6538 6.10602 15.0525 6.96633 14.2403 7.59391C13.7146 8.00332 13.0705 8.23187 12.4043 8.24547M31.276 13.6541C29.9586 13.6541 28.7462 12.4 28.4309 10.6135C28.0805 8.66583 28.9565 6.94236 30.4141 6.68313C30.7996 6.62906 31.1925 6.6697 31.5588 6.80153C31.9251 6.93337 32.2538 7.15243 32.5164 7.43978C33.1044 8.06394 33.4924 8.84952 33.6306 9.6957C33.7934 10.5356 33.6981 11.4051 33.3573 12.1898C33.2093 12.5493 32.9765 12.8677 32.6788 13.1178C32.381 13.3679 32.0272 13.5423 31.6474 13.626C31.5262 13.6366 31.4043 13.6366 31.283 13.626M23.2172 30.7486C23.4192 30.7594 23.6207 30.7202 23.804 30.6347C23.9873 30.5492 24.1468 30.4199 24.2683 30.2582C24.5837 29.8589 24.2683 29.5576 24.0511 29.2774C22.6393 27.1609 21.4443 24.9076 20.4842 22.5517C19.6946 20.7721 18.8887 18.9996 18.0665 17.2341C17.781 16.5388 17.2926 15.9455 16.665 15.5317C16.3216 15.3285 15.9642 15.0833 15.5437 15.3986C15.1233 15.7138 15.3896 16.0992 15.4947 16.4144C16.3286 19.1257 17.3027 21.788 18.3818 24.4082C18.9657 26.0007 19.7249 27.5234 20.6453 28.9481C20.9254 29.4075 21.297 29.8045 21.737 30.1142C22.1771 30.4239 22.6761 30.6399 23.2031 30.7486M33.8128 22.4185C33.84 21.199 33.6817 19.9824 33.3433 18.8105C33.2452 18.4602 33.112 18.0678 32.7056 17.9768C32.2992 17.8857 32.0539 18.243 31.8366 18.5372C31.2855 19.2795 30.8725 20.1148 30.6173 21.0033C29.7764 23.7076 28.9635 26.426 28.1156 29.1303C27.7371 30.3353 28.1156 30.9098 29.3559 31.0219C30.7575 31.148 31.7596 30.5034 32.4603 28.857C33.3351 26.8222 33.7949 24.6333 33.8128 22.4185ZM2.43227 27.582C2.43227 27.9112 2.43227 28.2405 2.43227 28.5628C2.42939 28.8285 2.47695 29.0924 2.57242 29.3405C2.66468 29.5102 2.80005 29.6527 2.9649 29.7536C3.12974 29.8544 3.31825 29.9101 3.51145 29.9149C4.30333 29.978 4.75182 29.2774 5.1863 28.6469C5.752 27.7726 6.20634 26.8312 6.53878 25.8445C7.99639 22.0682 9.25778 18.2009 11.5703 14.8101C11.6617 14.6741 11.7162 14.5168 11.7285 14.3534C11.7408 14.1901 11.7105 14.0263 11.6404 13.8783C11.0518 12.2108 9.68525 11.8465 8.3748 13.0656C7.37165 14.124 6.55005 15.3407 5.94313 16.6666C4.94155 18.539 4.12705 20.5055 3.51145 22.5376C2.95039 24.1793 2.58808 25.8822 2.43227 27.61M13.2872 17.3672C12.1179 19.0584 11.1755 20.8957 10.4842 22.8319C9.461 25.5502 8.7322 28.3946 7.21853 30.9238C6.91464 31.5566 6.48619 32.1217 5.95879 32.5852C5.4314 33.0486 4.81591 33.401 4.14916 33.6211C2.04684 34.1746 0.596244 33.2077 0.189797 31.0989C-0.132565 28.8643 0.0202613 26.5868 0.63829 24.4153C1.74551 19.6021 3.38532 14.9992 6.51075 11.1039C8.77424 8.25948 11.8717 8.49768 13.6166 11.6924C13.742 12.0627 13.9988 12.3742 14.3384 12.5678C14.6781 12.7615 15.077 12.8239 15.4596 12.7433C17.3727 12.5401 18.7462 13.612 19.8044 15.1043C21.1359 16.9889 21.8016 19.2028 22.7897 21.2556C23.6727 23.0841 24.4225 24.9757 25.4386 26.7342C25.5577 26.9444 25.6348 27.2807 25.9362 27.2597C26.2375 27.2387 26.2585 26.8954 26.3216 26.6502C26.7561 25.0178 27.2116 23.3854 27.604 21.746C27.9963 19.8995 28.7077 18.1356 29.7063 16.5335C29.9873 15.9872 30.4177 15.5319 30.9475 15.2206C31.4772 14.9093 32.0845 14.7548 32.6986 14.775C34.2403 14.8661 35.0462 15.868 35.5367 17.1921C36.672 20.2467 36.4547 23.3503 35.782 26.454C35.3325 28.5554 34.3938 30.5212 33.042 32.1919C31.3391 34.2937 29.3349 34.616 27.1134 33.1097C27.0084 33.0025 26.883 32.9173 26.7446 32.8592C26.6063 32.8011 26.4577 32.7711 26.3076 32.7711C26.1575 32.7711 26.0089 32.8011 25.8705 32.8592C25.7321 32.9173 25.6067 33.0025 25.5017 33.1097C23.5535 34.616 21.3391 34.2376 19.6783 32.1709C17.3517 29.2704 16.0693 25.8655 14.864 22.3625C14.3174 20.8002 13.8759 19.2028 13.3223 17.3883M140 33.8803V24.7726H138.515V28.4927H135.929V24.7726H134.394V33.8803H135.908V29.8449H138.494V33.8803H140ZM131.549 33.8803V26.1737H133.427V24.7726H128.178V26.1737H130.049V33.8803H131.549ZM128.515 33.8803V32.4791H125.466V24.7726H123.96V33.8803H128.515ZM119.846 26.2438H119.888L120.701 30.2162H119.047L119.846 26.2438ZM123 33.8803L120.897 24.7726H118.879L116.777 33.8803H118.297L118.767 31.5473H120.953L121.43 33.8803H123ZM116.335 33.8803V32.4791H113.021V29.8379H115.368V28.5137H113.021V26.1457H116.174V24.7445H111.521V33.8523L116.335 33.8803ZM109.902 33.8803V24.7726H108.416V28.4927H105.824V24.7726H104.317V33.8803H105.824V29.8449H108.416V33.8803H109.902ZM100.596 26.9304C100.344 25.5292 99.6362 24.6605 98.0455 24.6605C97.7293 24.6266 97.4094 24.6618 97.1081 24.7634C96.8068 24.865 96.531 25.0307 96.2999 25.2492C96.0688 25.4676 95.8878 25.7335 95.7693 26.0285C95.6509 26.3236 95.5978 26.6409 95.6138 26.9584C95.6138 29.8729 99.3069 29.6347 99.3069 31.6384C99.3149 31.7895 99.2899 31.9406 99.2338 32.0811C99.1776 32.2216 99.0915 32.3482 98.9815 32.4522C98.8715 32.5561 98.7403 32.635 98.5968 32.6832C98.4533 32.7314 98.3011 32.7478 98.1506 32.7313C97.3377 32.7313 96.9943 32.2619 96.8191 31.3301L95.4176 31.5754C95.7049 33.2077 96.4687 33.9994 98.0945 33.9994C99.7203 33.9994 100.757 33.1097 100.757 31.5263C100.757 28.5418 97.0223 28.773 97.0223 26.8673C97.0171 26.7347 97.0409 26.6025 97.0922 26.48C97.1434 26.3575 97.2208 26.2477 97.3189 26.1583C97.4171 26.0689 97.5336 26.002 97.6603 25.9623C97.787 25.9226 97.9208 25.9111 98.0525 25.9285C98.7533 25.9285 99.0966 26.412 99.2858 27.1826L100.589 26.9304H100.596ZM93.6306 28.3316L94.4715 26.433V24.7726H92.9228V26.475H93.4835L92.7827 28.2966L93.6306 28.3316ZM91.4092 33.9364V24.8286H90.0427V30.3633L87.5409 24.8286H85.81V33.9364H87.1485V27.631L90.0567 33.9364H91.4092ZM84.6818 33.9364V32.5352H81.3741V29.8379H83.7217V28.5137H81.3741V26.1457H84.5206V24.7445H79.8675V33.8523L84.6818 33.9364ZM74.6958 28.8991V26.0827H75.5297C76.2305 26.0827 76.9312 26.1527 76.9312 27.4348C76.9596 27.6254 76.943 27.8199 76.8825 28.0029C76.8222 28.1858 76.7197 28.3521 76.5835 28.4883C76.4472 28.6245 76.2809 28.727 76.0979 28.7873C75.9149 28.8477 75.7203 28.8644 75.5297 28.836L74.6958 28.8991ZM78.7953 33.9364L77.2116 29.5787C77.6281 29.3856 77.9749 29.0687 78.2044 28.6712C78.434 28.2736 78.5351 27.8149 78.494 27.3578C78.494 25.5782 77.5549 24.8286 75.5998 24.8286H73.1891V33.9364H74.6958V30.1251H75.8521L77.1625 33.8803L78.7953 33.9364ZM67.7301 32.5352V26.2298H68.4309C69.7624 26.2298 70.4351 26.9934 70.4351 29.3054C70.4351 31.6174 69.8254 32.5492 68.3959 32.5492L67.7301 32.5352ZM68.2627 33.9364C70.9467 33.9364 71.9558 32.276 71.9558 29.2844C71.9558 26.0967 70.8065 24.8286 68.2907 24.8286H66.1884V33.9364H68.2627ZM65.2984 33.9364V32.5352H62.2501V24.8286H60.7434V33.9364H65.2984ZM57.632 33.9364H59.1387V24.8286H57.632V33.9364ZM56.0202 33.9364V24.8286H54.5066V28.5488H51.9488V24.7726H50.4351V33.8803H51.9488V29.8449H54.5066V33.8803L56.0202 33.9364ZM47.8703 30.7767C47.6811 32.0167 47.2536 32.6683 46.5318 32.6683C45.5507 32.6683 45.1303 31.8136 45.1303 29.2914C45.1303 26.9794 45.6138 26.0056 46.5318 26.0056C47.2326 26.0056 47.597 26.5731 47.7862 27.7291L49.1877 27.603C48.9565 25.7464 48.2627 24.6605 46.5108 24.6605C44.3524 24.6605 43.5886 26.6642 43.5886 29.2914C43.5886 32.2199 44.2893 33.9994 46.4828 33.9994C48.1436 33.9994 48.9985 32.9415 49.2858 30.9168L47.8703 30.7767Z" fill="#939393"/>
<path fill-rule="evenodd" clip-rule="evenodd" d="M44.0508 8.26015C44.0508 7.88853 44.1985 7.53213 44.4613 7.26935C44.7242 7.00658 45.0806 6.85895 45.4524 6.85895H45.7467C46.0453 6.86213 46.3385 6.94011 46.5992 7.08575C46.86 7.23139 47.08 7.44005 47.2393 7.69266L52.7544 14.9438V8.17608C52.7544 7.80446 52.902 7.44806 53.1649 7.18528C53.4277 6.92251 53.7842 6.77488 54.1559 6.77488C54.5276 6.77488 54.8841 6.92251 55.147 7.18528C55.4098 7.44806 55.5575 7.80446 55.5575 8.17608V18.5239C55.5621 18.7108 55.5293 18.8968 55.461 19.0709C55.3927 19.2449 55.2902 19.4036 55.1596 19.5374C55.029 19.6713 54.8729 19.7776 54.7005 19.8502C54.5281 19.9228 54.343 19.9602 54.1559 19.9601H54.0859C53.7873 19.957 53.4945 19.8782 53.2347 19.7312C52.9749 19.5841 52.7566 19.3737 52.6002 19.1194L46.8749 11.616V18.622C46.8749 18.9936 46.7273 19.35 46.4644 19.6128C46.2016 19.8756 45.8451 20.0232 45.4734 20.0232C45.1017 20.0232 44.7452 19.8756 44.4823 19.6128C44.2195 19.35 44.0718 18.9936 44.0718 18.622V8.26015M58.7109 18.4538V8.30919C58.7109 7.93757 58.8586 7.58117 59.1214 7.3184C59.3843 7.05562 59.7408 6.90799 60.1125 6.90799H67.3725C67.5474 6.895 67.7232 6.91824 67.8888 6.97625C68.0543 7.03427 68.2062 7.12581 68.3347 7.24516C68.4633 7.36451 68.5659 7.50909 68.636 7.66987C68.7061 7.83066 68.7423 8.00417 68.7423 8.17958C68.7423 8.35498 68.7061 8.5285 68.636 8.68928C68.5659 8.85007 68.4633 8.99465 68.3347 9.114C68.2062 9.23335 68.0543 9.32489 67.8888 9.3829C67.7232 9.44092 67.5474 9.46416 67.3725 9.45116H61.5771V12.0924H66.5385C66.7135 12.0794 66.8893 12.1027 67.0549 12.1607C67.2204 12.2187 67.3723 12.3102 67.5008 12.4296C67.6294 12.5489 67.732 12.6935 67.8021 12.8543C67.8722 13.0151 67.9084 13.1886 67.9084 13.364C67.9084 13.5394 67.8722 13.7129 67.8021 13.8737C67.732 14.0345 67.6294 14.1791 67.5008 14.2984C67.3723 14.4178 67.2204 14.5093 67.0549 14.5673C66.8893 14.6253 66.7135 14.6486 66.5385 14.6356H61.5771V17.3679H67.4636C67.8037 17.3679 68.1299 17.503 68.3704 17.7434C68.6109 17.9839 68.746 18.31 68.746 18.65C68.7451 18.8171 68.7111 18.9824 68.6461 19.1364C68.5811 19.2903 68.4862 19.4299 68.367 19.5471C68.2479 19.6643 68.1067 19.7568 67.9517 19.8193C67.7966 19.8817 67.6307 19.9129 67.4636 19.9111H60.1615C59.7898 19.9111 59.4333 19.7635 59.1705 19.5007C58.9077 19.2379 58.76 18.8815 58.76 18.5099M71.1847 8.26015C71.1847 7.88853 71.3323 7.53213 71.5952 7.26935C71.858 7.00658 72.2145 6.85895 72.5862 6.85895H72.9015C73.1658 6.84666 73.4285 6.90511 73.6626 7.02827C73.8966 7.15144 74.0936 7.33484 74.233 7.55955L77.6878 13.1643L81.1356 7.55955C81.2642 7.33614 81.452 7.15253 81.6782 7.02892C81.9045 6.90532 82.1605 6.8465 82.418 6.85895H82.7334C83.1051 6.85895 83.4616 7.00658 83.7244 7.26935C83.9872 7.53213 84.1349 7.88853 84.1349 8.26015V18.5659C84.1349 18.9376 83.9872 19.294 83.7244 19.5567C83.4616 19.8195 83.1051 19.9671 82.7334 19.9671C82.3617 19.9671 82.0052 19.8195 81.7423 19.5567C81.4795 19.294 81.3318 18.9376 81.3318 18.5659V12.0784L78.8371 15.9667C78.7241 16.1842 78.5536 16.3664 78.3442 16.4936C78.1347 16.6208 77.8943 16.6881 77.6493 16.6881C77.4042 16.6881 77.1638 16.6208 76.9544 16.4936C76.7449 16.3664 76.5744 16.1842 76.4615 15.9667L73.9877 12.1555V18.622C73.9877 18.9936 73.8401 19.35 73.5772 19.6128C73.3144 19.8756 72.9579 20.0232 72.5862 20.0232C72.2145 20.0232 71.858 19.8756 71.5952 19.6128C71.3323 19.35 71.1847 18.9936 71.1847 18.622V8.26015ZM97.5757 13.4446V13.4095C97.5935 12.8798 97.5048 12.3519 97.3147 11.8571C97.1246 11.3623 96.837 10.9107 96.469 10.5291C96.1011 10.1475 95.6602 9.84371 95.1726 9.63567C94.685 9.42764 94.1605 9.31963 93.6304 9.31805C93.104 9.31566 92.5826 9.42013 92.0977 9.62512C91.6129 9.83011 91.1748 10.1314 90.8098 10.5106C90.4449 10.8899 90.1607 11.3393 89.9746 11.8315C89.7885 12.3238 89.7043 12.8487 89.7271 13.3745C89.7092 13.9039 89.798 14.4315 89.9882 14.9259C90.1784 15.4203 90.466 15.8715 90.8341 16.2525C91.2021 16.6335 91.6431 16.9367 92.1307 17.144C92.6183 17.3512 93.1426 17.4584 93.6724 17.459C94.1982 17.4613 94.719 17.3571 95.2033 17.1525C95.6876 16.948 96.1254 16.6473 96.4903 16.2688C96.8551 15.8903 97.1394 15.4418 97.326 14.9504C97.5125 14.4589 97.5975 13.9347 97.5757 13.4095M86.7348 13.4095V13.3745C86.7919 11.5796 87.5453 9.87729 88.8355 8.62782C90.1258 7.37834 91.8516 6.67969 93.6479 6.67969C95.4441 6.67969 97.17 7.37834 98.4602 8.62782C99.7504 9.87729 100.503 11.5796 100.561 13.3745C100.508 15.1697 99.7595 16.8741 98.4725 18.127C97.1854 19.3799 95.4612 20.083 93.6648 20.0875C91.8684 20.0921 90.1407 19.3977 88.8473 18.1514C87.5539 16.905 86.7963 15.2044 86.7348 13.4095ZM102.901 14.3063V8.19709C102.901 7.81711 103.052 7.45269 103.321 7.18401C103.59 6.91532 103.954 6.76437 104.334 6.76437C104.714 6.76437 105.079 6.91532 105.348 7.18401C105.616 7.45269 105.767 7.81711 105.767 8.19709V14.2362C105.767 16.338 106.825 17.452 108.57 17.452C110.315 17.452 111.373 16.3871 111.373 14.3273V8.19709C111.373 7.81804 111.524 7.45451 111.792 7.18648C112.06 6.91845 112.424 6.76787 112.803 6.76787C113.182 6.76787 113.546 6.91845 113.814 7.18648C114.082 7.45451 114.233 7.81804 114.233 8.19709V14.2152C114.233 18.1526 112.025 20.0862 108.528 20.0862C105.031 20.0862 102.922 18.1386 102.922 14.3133" fill="#939393"/>
<path fill-rule="evenodd" clip-rule="evenodd" d="M122.922 13.1641C124.324 13.1641 125.116 12.4215 125.116 11.3285V11.2865C125.116 10.0605 124.261 9.42992 122.866 9.42992H120.021V13.1641H122.922ZM117.155 8.25992C117.155 7.8883 117.303 7.53191 117.565 7.26913C117.828 7.00636 118.185 6.85873 118.556 6.85873H123.069C123.757 6.81542 124.447 6.90959 125.098 7.13574C125.749 7.36189 126.348 7.71548 126.861 8.17585C127.236 8.57075 127.529 9.03732 127.72 9.5477C127.912 10.0581 127.998 10.6018 127.975 11.1464V11.1814C128.024 12.0338 127.798 12.8794 127.33 13.5935C126.862 14.3075 126.176 14.8521 125.375 15.1468L127.386 17.5779C127.671 17.8749 127.835 18.2667 127.849 18.6778C127.848 18.8535 127.812 19.0272 127.743 19.1889C127.674 19.3506 127.574 19.497 127.448 19.6196C127.322 19.7422 127.173 19.8385 127.01 19.9029C126.847 19.9674 126.672 19.9987 126.496 19.9949C126.22 19.993 125.948 19.9244 125.704 19.7951C125.46 19.6659 125.251 19.4796 125.095 19.2523L122.292 15.7493H120.007V18.5937C120.007 18.9737 119.856 19.3381 119.587 19.6068C119.319 19.8755 118.954 20.0265 118.574 20.0265C118.194 20.0265 117.829 19.8755 117.561 19.6068C117.292 19.3381 117.141 18.9737 117.141 18.5937L117.155 8.25992ZM130.336 18.4606C130.168 18.3356 130.032 18.1728 129.938 17.9854C129.844 17.798 129.796 17.5912 129.797 17.3817C129.797 17.207 129.832 17.0339 129.899 16.8728C129.967 16.7116 130.065 16.5654 130.19 16.4428C130.315 16.3203 130.462 16.2237 130.625 16.1587C130.787 16.0938 130.96 16.0618 131.135 16.0646C131.427 16.0595 131.713 16.1506 131.948 16.3238C132.9 17.0672 134.069 17.4782 135.277 17.4938C136.447 17.4938 137.155 17.0314 137.155 16.2678V16.2257C137.155 15.5251 136.706 15.1328 134.534 14.5723C131.913 13.9067 130.224 13.1711 130.224 10.5999V10.5649C130.224 8.20388 132.116 6.64154 134.779 6.64154C136.235 6.61882 137.666 7.01788 138.9 7.79052C139.149 7.94043 139.343 8.16841 139.45 8.43919C139.557 8.70997 139.571 9.00844 139.492 9.28843C139.412 9.56843 139.242 9.81432 139.008 9.98808C138.775 10.1618 138.49 10.2538 138.199 10.2496C137.951 10.2428 137.709 10.1703 137.498 10.0394C136.682 9.50997 135.738 9.2099 134.765 9.1707C133.672 9.1707 133.097 9.66813 133.097 10.3057C133.097 11.1604 133.651 11.4406 135.9 12.0151C138.542 12.7157 140.028 13.6475 140.028 15.9175V15.9525C140.028 18.5377 138.059 19.9879 135.249 19.9879C133.49 19.9927 131.775 19.4463 130.343 18.4256" fill="#939393"/>
</g>
</g>
<defs>
<clipPath id="clip0_1008_3605">
<rect width="140" height="34" fill="white"/>
</clipPath>
</defs>
</svg>
