<svg width="155" height="30" viewBox="0 0 155 30" fill="none" xmlns="http://www.w3.org/2000/svg">
<g id="santander 1" clip-path="url(#clip0_264_4403)">
<g id="Clip path group">
<mask id="mask0_264_4403" style="mask-type:luminance" maskUnits="userSpaceOnUse" x="0" y="0" width="155" height="30">
<g id="clip0">
<path id="Vector" d="M155 0H0V30H155V0Z" fill="white"/>
</g>
</mask>
<g mask="url(#mask0_264_4403)">
<g id="Group">
<g id="Clip path group_2">
<mask id="mask1_264_4403" style="mask-type:luminance" maskUnits="userSpaceOnUse" x="0" y="1" width="155" height="28">
<g id="clip1">
<path id="Vector_2" d="M155 1.5791H0V28.4212H155V1.5791Z" fill="white"/>
</g>
</mask>
<g mask="url(#mask1_264_4403)">
<g id="Group_2">
<g id="Clip path group_3">
<mask id="mask2_264_4403" style="mask-type:luminance" maskUnits="userSpaceOnUse" x="0" y="1" width="155" height="28">
<g id="clip2">
<path id="Vector_3" d="M155 1.5791H0V28.4212H155V1.5791Z" fill="white"/>
</g>
</mask>
<g mask="url(#mask2_264_4403)">
<g id="Group_3">
<g id="Clip path group_4">
<mask id="mask3_264_4403" style="mask-type:luminance" maskUnits="userSpaceOnUse" x="0" y="1" width="155" height="28">
<g id="clip3">
<path id="Vector_4" d="M155 1.5791H0V28.4212H155V1.5791Z" fill="white"/>
</g>
</mask>
<g mask="url(#mask3_264_4403)">
<g id="Group_4">
<path id="Vector_5" d="M20.4573 13.8738C20.4147 12.8907 20.1322 11.9324 19.6344 11.0803L15.1655 3.43137C14.8298 2.85691 14.5911 2.2323 14.4585 1.58203L14.2718 1.9017C13.1657 3.79485 13.1656 6.12735 14.2716 8.02054L17.8469 14.1398C18.953 16.033 18.953 18.3656 17.8469 20.2588L17.66 20.5785C17.5275 19.9283 17.2888 19.3037 16.9531 18.7292L13.6801 13.1272L11.5904 9.55035C11.2548 8.97589 11.016 8.35133 10.8834 7.70108L10.6967 8.02074C9.59466 9.90714 9.59052 12.2302 10.6858 14.1204L14.2718 20.2589C15.3779 22.1521 15.3779 24.4847 14.2718 26.378L14.085 26.6976C13.9524 26.0472 13.7137 25.4227 13.3781 24.8483L8.90912 17.1994C8.32013 16.1911 8.03458 15.0377 8.08605 13.8746C3.30201 15.1097 0 17.7323 0 20.7688C0 24.9931 6.38972 28.4175 14.2718 28.4175C22.1537 28.4175 28.5434 24.9931 28.5434 20.7688C28.5434 17.7321 25.2419 15.1089 20.4573 13.8738ZM33.932 26.9341C33.962 26.0216 34.1336 25.1192 34.4412 24.2586C35.9892 24.9263 37.6579 25.2778 39.3472 25.2915C41.8401 25.2915 43.2342 24.4968 43.2342 22.934C43.2342 21.3975 42.2154 20.6822 39.6955 19.5961L38.3282 19.0135C35.8083 17.9271 34.0927 16.5231 34.0927 13.715C34.0927 10.6952 36.2105 8.76124 40.5532 8.76124C42.2209 8.74062 43.8797 9.0004 45.4592 9.52949C45.4004 10.4322 45.22 11.3231 44.9229 12.1787C43.5103 11.685 42.0248 11.4254 40.5264 11.4104C38.1943 11.4104 37.122 12.3112 37.122 13.715C37.122 15.0926 38.1675 15.8873 40.0441 16.6822L41.4918 17.2913C44.8963 18.722 46.3169 20.2319 46.3169 22.8015C46.3169 25.8478 43.9847 27.9407 39.4275 27.9407C37.2292 27.9407 35.4331 27.623 33.932 26.9341ZM60.7133 14.2713V27.5169H58.0058L57.8451 25.9275C57.0942 27.0929 55.9416 27.8346 54.0651 27.8346C50.5265 27.8346 48.1675 25.2915 48.1675 20.8414C48.1675 16.1787 50.6874 13.5297 55.6466 13.5297C57.5768 13.5297 59.1585 13.7416 60.7133 14.2713ZM57.7644 24.4968V16.1787C57.0647 16.0649 56.3559 16.0117 55.6466 16.0198C52.5906 16.0198 51.17 17.8742 51.17 20.8414C51.17 23.5433 52.269 25.4505 54.8961 25.4505C55.9334 25.4601 56.944 25.1241 57.7644 24.4968ZM75.8066 18.6159V27.5169H72.8579V19.1192C72.8579 17.0266 72.1608 16.0198 69.212 16.0198C68.4302 16.0294 67.6501 16.1002 66.8797 16.2317V27.5169H63.931V14.2713C65.8074 13.8211 67.8716 13.5297 69.2924 13.5297C74.2249 13.5297 75.8066 15.4104 75.8066 18.6159ZM83.9838 25.3446C84.7699 25.3471 85.5503 25.2126 86.2893 24.9475C86.2089 25.742 86.1017 26.6428 85.9406 27.4108C85.1446 27.7075 84.2984 27.8513 83.4477 27.8346C80.5793 27.8346 78.7563 26.5367 78.7563 23.3049V9.397C79.713 9.11382 80.7065 8.971 81.7051 8.97316V13.98H86.3697C86.3273 14.8143 86.2378 15.6456 86.1017 16.47H81.7051V22.9605C81.7051 24.6823 82.563 25.3446 83.9838 25.3446ZM99.801 14.2713V27.5169H97.0933L96.9326 25.9275C96.1819 27.0929 95.0291 27.8346 93.1528 27.8346C89.6141 27.8346 87.255 25.2915 87.255 20.8414C87.255 16.1787 89.7746 13.5297 94.7345 13.5297C96.6645 13.5297 98.246 13.7416 99.801 14.2713ZM96.8521 24.4968V16.1787C96.1522 16.0649 95.4434 16.0117 94.7345 16.0198C91.6783 16.0198 90.2575 17.8742 90.2575 20.8414C90.2575 23.5433 91.3568 25.4505 93.9836 25.4505C95.0209 25.4601 96.0316 25.1241 96.8521 24.4968ZM114.894 18.6159V27.5169H111.946V19.1192C111.946 17.0266 111.248 16.0198 108.3 16.0198C107.518 16.0294 106.738 16.1002 105.967 16.2317V27.5169H103.019V14.2713C104.895 13.8211 106.959 13.5297 108.38 13.5297C113.313 13.5297 114.894 15.4104 114.894 18.6159ZM129.854 8.97316V27.5169H127.146L126.985 25.8214C126.235 27.0667 125.082 27.8346 123.152 27.8346C119.613 27.8346 117.254 25.2915 117.254 20.8414C117.254 16.1787 119.774 13.5297 124.734 13.5297C125.471 13.5307 126.208 13.6016 126.932 13.7416V9.3706C127.843 9.0526 128.889 8.97316 129.854 8.97316ZM126.932 24.4439V16.2847C126.156 16.1182 125.366 16.0294 124.573 16.0198C121.651 16.0198 120.257 17.8212 120.257 20.8414C120.257 23.5433 121.356 25.4505 123.983 25.4505C125.053 25.4545 126.092 25.0995 126.932 24.4439ZM144.679 21.8478H135.27C135.645 24.2055 137.039 25.3446 139.666 25.3446C141.293 25.343 142.901 24.9999 144.384 24.338C144.277 25.1063 144.116 26.1127 143.928 26.987C142.588 27.5963 141.167 27.8346 139.585 27.8346C134.653 27.8346 132.267 25.1327 132.267 20.6028C132.267 16.6556 134.117 13.5297 138.808 13.5297C143.017 13.5297 144.84 16.2581 144.84 19.5961C144.842 20.3496 144.788 21.1022 144.679 21.8478ZM135.216 19.4106H141.864C141.864 17.2383 140.685 15.9667 138.647 15.9667C136.556 15.9667 135.457 17.1589 135.216 19.4106ZM155.001 13.6355C155.009 14.4731 154.919 15.3088 154.732 16.1258C153.993 16.0475 153.25 16.0121 152.507 16.0198C151.781 16.02 151.055 16.0731 150.336 16.1787V27.5169H147.387V14.2713C148.647 13.8475 150.765 13.5297 152.427 13.5297C153.286 13.5195 154.145 13.5549 155.001 13.6355Z" fill="#939393"/>
</g>
</g>
</g>
</g>
</g>
</g>
</g>
</g>
</g>
</g>
</g>
</g>
</g>
<defs>
<clipPath id="clip0_264_4403">
<rect width="155" height="30" fill="white"/>
</clipPath>
</defs>
</svg>
