<svg width="117" height="117" viewBox="0 0 117 117" fill="none" xmlns="http://www.w3.org/2000/svg">
<g id="wv-1 1">
<path id="Vector" d="M58.5 91.7031C40.2905 91.7031 25.3758 76.7096 25.3758 58.5C25.3758 54.4022 26.107 50.5251 27.4936 46.8717L46.8717 85.8458C47.0954 86.3562 47.4609 86.7935 48.0417 86.7935C48.6309 86.7935 48.9896 86.3562 49.2117 85.8458L58.1344 65.8856C58.2061 65.6635 58.3566 65.4483 58.5717 65.4483C58.794 65.4483 58.8656 65.6705 59.0091 65.8856L67.9317 85.8458C68.1539 86.3562 68.5195 86.7935 69.1017 86.7935C69.6895 86.7935 70.0481 86.3562 70.2717 85.8458L89.6512 46.8717C91.0435 50.5251 91.7675 54.4022 91.7675 58.5C91.6315 76.7096 76.7096 91.7031 58.5 91.7031ZM58.5 50.9709C58.2778 50.9709 58.2061 50.7487 58.0627 50.5336L47.676 27.1336C51.0426 25.8919 54.6961 25.2323 58.5 25.2323C62.3039 25.2323 65.9574 25.8849 69.324 27.1266L58.9373 50.5251C58.7939 50.8205 58.7222 50.9709 58.5 50.9709ZM47.8983 75.0306C47.6761 75.0306 47.6044 74.8069 47.461 74.5919L30.6365 40.6561C33.6374 36.0492 37.6566 32.1722 42.5588 29.4666L54.696 56.4539C54.8395 56.8926 55.2052 57.0431 55.5722 57.0431H61.4208C61.8596 57.0431 62.1534 56.9714 62.3685 56.4539L74.5056 29.4666C79.3297 32.1722 83.4268 36.0492 86.4279 40.6561L69.4674 74.5919C69.3956 74.8156 69.2451 75.0306 69.03 75.0306C68.8064 75.0306 68.7347 74.8069 68.5913 74.5919L62.2322 60.1144C62.01 59.6054 61.7231 59.5266 61.2844 59.5266H55.4358C54.997 59.5266 54.7031 59.5983 54.4879 60.1144L48.3441 74.5919C48.2654 74.8069 48.1135 75.0306 47.8983 75.0306ZM58.5 95.0625C78.7556 95.0625 95.0625 78.7556 95.0625 58.5C95.0625 38.2444 78.7556 21.9375 58.5 21.9375C38.2444 21.9375 21.9375 38.2444 21.9375 58.5C21.9375 78.7556 38.2444 95.0625 58.5 95.0625Z" fill="#939393"/>
</g>
</svg>
