<svg width="80" height="80" viewBox="0 0 80 80" fill="none" xmlns="http://www.w3.org/2000/svg">
<g id="76_Orange_Logo 1" clip-path="url(#clip0_298_9986)">
<g id="layer1">
<path id="rect7577" d="M40 0C62.16 0 80 17.84 80 40C80 62.16 62.16 80 40 80C17.84 80 0 62.16 0 40C0 17.84 17.84 0 40 0Z" fill="#939393"/>
<path id="path228" fill-rule="evenodd" clip-rule="evenodd" d="M69.2304 43.2165C70.3621 35.9252 67.4916 30.3938 59.733 30.1026C62.193 25.396 65.2871 20.8543 68.4103 16.3887H51.6427C50.0722 18.1371 48.5599 19.892 47.1318 21.7552H18.9453L10.6998 36.3523H24.0482L10.6901 60.4807H29.0864C30.9755 55.7061 32.656 51.0108 34.9576 46.4141C34.8169 56.201 40.5069 62.0317 50.0447 61.6679C59.7556 61.2974 67.6772 53.2233 69.2304 43.2165Z" fill="white"/>
<path id="path252" fill-rule="evenodd" clip-rule="evenodd" d="M15.3569 57.7524H26.9343C31.2334 46.6635 37.3277 35.573 44.2341 24.4841H20.5601L15.7014 33.3296H29.1065L15.3569 57.7524ZM54.6323 45.7384C53.3854 47.9907 51.8164 50.1297 49.8383 49.9339C47.7632 49.7285 46.8981 47.2539 47.8684 44.493C48.9846 41.3165 50.4416 38.6104 53.2317 38.5797C56.1834 38.5473 56.7674 41.8818 54.6323 45.7384ZM49.0782 58.972C57.783 58.8749 64.1389 52.3874 65.959 44.273C67.8815 35.7022 61.605 31.0248 54.579 33.176C56.384 29.1956 60.0296 23.6042 63.1722 19.1191H52.858C47.4333 25.0582 38.262 38.5459 37.7628 44.6709C37.243 51.0484 39.2185 59.0819 49.0782 58.972Z" fill="#939393"/>
</g>
</g>
<defs>
<clipPath id="clip0_298_9986">
<rect width="80" height="80" fill="white"/>
</clipPath>
</defs>
</svg>
