<svg width="126" height="43" viewBox="0 0 126 43" fill="none" xmlns="http://www.w3.org/2000/svg">
<g id="Boston_Scientific_Logo 1" clip-path="url(#clip0_298_9753)">
<g id="layer1">
<g id="g3363">
<path id="path3265" d="M87.6473 40.891H84.9375V41.7157H93.2059V40.891H90.9824V26.5283L90.7045 26.8032L90.3571 27.0094L89.6623 27.2155L88.898 27.353H85.3544V28.1776H87.6473V40.891Z" fill="#939393"/>
<path id="path3267" d="M35.1189 40.891H32.3396V41.7157H40.608V40.891H38.3845V26.5283L38.1066 26.8032L37.7592 27.0094L37.0644 27.2155L36.3001 27.353H32.687V28.1776H35.1189V40.891Z" fill="#939393"/>
<path id="path3269" d="M97.3054 40.8914H94.665V41.716H103.072V40.8914H100.641V28.178H106.616V40.8914H104.393V41.716H112.591V40.8914H109.882V26.5287L109.673 26.8036L109.326 27.0097L108.561 27.2159L107.728 27.3533H100.641C101 24.3972 99.7199 20.2315 102.308 17.8698L102.794 17.5262L103.211 17.2513L103.698 17.1139L104.254 17.0451L104.809 16.9077L105.504 16.839H106.06L106.547 16.9077L106.963 17.1139L107.311 17.2513L107.658 17.4575L107.867 17.5949L108.006 17.8698L108.075 18.076L108.006 18.2821L107.867 18.4883L107.45 18.6945L107.102 18.9693C106.104 19.8375 106.514 21.0035 107.589 21.512C108.561 22.0068 109.662 21.2669 110.021 20.3438C110.7 18.0931 108.478 16.3327 106.408 16.0831C99.1582 15.1954 96.731 21.2944 97.3054 27.3533H94.3176V28.178H97.3054V40.8914Z" fill="#939393"/>
<path id="path3271" d="M9.13246 31.27C15.7726 32.0729 16.3088 40.4913 9.41041 41.3033C4.5617 41.553 2.00126 37.4584 1.62837 33.1255H0.725124V41.9906H1.62837L1.76736 41.5095L1.90632 41.1659L2.18423 40.9597L2.6706 40.891C3.93055 41.001 5.40359 41.6996 6.63111 42.0593C9.151 42.5243 12.0588 42.333 14.1352 40.6849C17.3916 38.1628 17.6464 31.7179 14.2742 29.2084C10.2326 26.0095 -0.165418 27.3999 3.43492 19.3813C7.71966 14.887 13.9094 19.1167 14.2742 24.6728H15.1774V17.3884H14.3436C13.7762 20.6286 7.3132 12.4737 1.76736 19.3126C0.320969 21.3593 0.5016 23.7107 0.933548 26.0473C2.3753 29.8178 5.49854 30.3457 9.13246 31.27Z" fill="#939393"/>
<path id="path3273" d="M76.3914 38.9671L76.4608 39.8605L76.6693 40.5477L77.0167 41.0975L77.5031 41.5098L77.9894 41.8534L78.6843 42.1283L79.5181 42.197C81.3732 42.6002 83.504 41.8167 84.2428 39.9292L83.548 39.5169L83.2006 40.0667L82.6448 40.6164L82.4363 40.7539L82.0889 40.96L81.7415 41.0975H80.9772L80.6992 41.0287L80.3518 40.96L80.2129 40.7539L79.935 40.5477L79.8655 40.2041L79.7265 39.7231L79.657 39.3107V28.1779H83.548V27.3532H79.657V22.9551H79.0317C78.6032 26.1197 76.8152 27.4723 73.6121 27.3532V28.1779H76.3914V38.9671Z" fill="#939393"/>
<path id="path3275" d="M65.8994 40.891H68.2618V29.6208L68.1229 29.1397L67.9144 28.6587L67.706 28.4525L67.3586 28.1776L67.0112 27.9715L66.5943 27.834C64.4403 27.6279 62.7461 29.2875 61.661 30.9265V40.891H64.1624V41.7157H55.6855V40.891H58.2564V28.1776H55.6855V27.353H59.5071L60.3409 27.2155L60.6883 27.1468L61.0357 27.0781L61.5915 26.5283V29.4834C63.1723 27.4126 65.3656 26.1607 68.0534 26.6658L68.9567 26.8719L69.8599 27.353L70.4158 27.9027L70.9716 28.5212L71.3191 29.2772L71.5275 30.1018L71.6665 30.9952V40.891H74.2373V41.7157H65.8994V40.891Z" fill="#939393"/>
<path id="path3277" d="M30.4634 36.9739C29.7338 40.3263 25.9505 42.6319 23.0983 39.9976L22.7509 39.3104L22.4035 38.4857L22.2645 37.5236V31.8885L22.4035 30.9264C22.7451 29.6012 23.6437 27.9233 25.1828 27.7652C26.1173 27.4216 27.5533 27.6278 28.3095 28.315L28.4484 28.5211L28.6569 28.796V29.2771L28.5179 29.4833L28.1705 29.7581L27.9621 30.2392C27.17 31.9091 29.6099 32.9766 30.6719 31.751C33.9607 26.4206 19.5327 23.3476 18.6514 33.6752C17.3903 43.2641 29.6447 45.7473 31.2972 36.9739H30.4634Z" fill="#939393"/>
<path id="path3279" d="M124.404 36.9743C123.87 40.4584 119.646 42.5143 117.177 39.9293L116.691 39.242L116.483 38.4861L116.274 37.4553L116.205 36.3558V33.0571L116.274 31.8889L116.483 30.9268C116.609 29.4161 117.756 28.0794 119.192 27.6282C120.821 27.5194 120.861 27.5686 122.319 28.2467L122.528 28.5216L122.666 28.7964V29.2088L122.597 29.4837L122.25 29.7585L121.972 30.2396C121.572 30.7825 121.942 31.7308 122.528 32.0263L122.736 32.0951L123.083 32.2325H123.431L124.126 32.0951L124.404 31.8889L124.681 31.7514C126.838 28.596 121.738 26.1805 119.123 26.8035C115.432 27.0956 112.935 30.0701 112.592 33.6069C111.454 42.5556 122.992 46.1989 125.376 36.9743H124.404Z" fill="#939393"/>
<path id="path3281" d="M53.6011 36.8365C53.3984 38.81 51.4089 41.3046 49.2237 41.0973C44.8486 41.3802 45.335 35.9546 45.4716 33.1943H54.7822C55.2513 30.268 52.7302 27.4607 49.9185 26.872C46.5845 26.0679 43.2702 28.4595 42.2754 31.545C41.151 34.8265 41.8285 38.8604 44.6379 41.0973C48.728 43.7213 53.8049 41.7856 54.5043 36.8365H53.6011ZM51.4471 32.0948V32.2322L51.3081 32.3697H45.6106C44.7166 26.053 52.2971 25.8778 51.4471 32.0948Z" fill="#939393"/>
<path id="path3283" d="M22.612 1.44525C30.7472 0.523245 30.4716 11.0261 22.612 10.0354V1.44525ZM19.1379 20.7559H16.9144V21.6493C21.5211 21.4924 31.8485 23.6216 32.9648 16.4265C33.23 12.6365 30.6754 10.9013 27.0589 10.5164V10.379C30.4091 10.1557 32.5954 7.57059 31.9226 4.33154L31.8531 3.91923L31.5752 3.36945L31.2973 3.02585L31.0193 2.61351L30.6719 2.2699L29.8381 1.58269L29.3518 1.37655L28.7264 1.17038L28.1011 0.895479L26.7114 0.689338L25.1828 0.620605H16.845V1.44525H19.1379V20.7559ZM22.612 10.7913C31.7385 9.42722 31.7709 22.3101 22.612 20.7559V10.7913Z" fill="#939393"/>
<path id="path3285" d="M34.4241 15.3269C34.6453 24.3225 46.9344 24.3225 47.2783 15.3269C46.9378 6.14923 34.526 6.35081 34.4241 15.3269ZM43.9431 16.0829C43.9871 18.8283 43.6386 21.4935 40.2606 21.1682C36.7563 20.6299 37.8044 15.9649 37.6202 13.5402C37.6329 11.0433 38.6301 9.10311 41.3723 9.41694L41.7892 9.55438L42.2755 9.62311L42.623 9.89798L42.9704 10.0354L43.1788 10.379L43.3873 10.6539C44.3137 12.475 43.8088 14.1083 43.9431 16.0829Z" fill="#939393"/>
<path id="path3287" d="M67.428 15.3271C67.6422 24.325 80.0483 24.3261 80.2822 15.3271C80.1548 6.26737 67.5368 6.25935 67.428 15.3271ZM77.086 16.083C77.1011 18.6521 76.639 21.5132 73.4034 21.1684C69.7811 20.8042 70.9032 16.0166 70.6936 13.6091C70.6172 11.0813 71.5795 9.11817 74.3762 9.4171L74.8626 9.55454L75.2794 9.62327L75.6269 9.89815L75.9743 10.0356L76.1827 10.3792L76.3912 10.6541C77.3558 12.7673 77.0235 13.8462 77.086 16.083Z" fill="#939393"/>
<path id="path3289" d="M89.454 20.7559H91.33V11.4098L91.1216 10.8601L90.9826 10.5165C90.509 10.1431 89.9635 9.69411 89.315 9.76054L88.8286 9.89797L88.2728 10.0354L87.7864 10.3103L87.3 10.6539L86.8832 10.9975L86.4662 11.4786L86.1188 11.8909L85.8409 12.4407V20.7559H88.1338V21.6493H80.3518V20.7559H82.7837V9.76054H80.3518V9.00459H83.687L84.5902 8.93589L84.9376 8.86716L85.2851 8.72972L85.4935 8.59228L85.7714 8.31738V10.7914H85.8409L86.3273 10.3103L86.8137 9.76054L87.3 9.41693C88.5438 8.50523 89.1193 8.57852 90.4962 8.31738L91.5385 8.45482L92.4417 8.66099L93.1366 9.07333L93.6229 9.6231L94.0398 10.2416L94.3177 10.7914L94.4567 11.4786V20.7559H96.1938V21.6493H89.454V20.7559Z" fill="#939393"/>
<path id="path3291" d="M53.3927 16.4951C55.8824 16.4699 56.9907 19.7662 54.6433 20.962C51.7714 21.9768 49.6279 20.1763 49.2932 17.251H48.5984L48.7373 21.9241H49.4322L49.5711 21.3743L49.7796 21.3056H50.1965L50.4744 21.3743L51.0998 21.7179L52.003 21.9241C53.432 22.4063 55.7157 22.0111 56.6583 20.8245C58.9003 18.2693 57.9831 14.1975 54.2959 13.6775C44.8174 13.035 54.3781 5.01639 56.1025 12.3031H56.7973L56.7278 8.6609H56.1025L56.033 8.86707L55.9635 9.0045L55.894 9.21067C55.2675 9.25419 54.011 8.52804 53.3927 8.52346C51.6046 8.52163 50.6064 8.62998 49.4322 10.1041C47.5284 13.3007 49.5943 16.3554 53.3927 16.4951Z" fill="#939393"/>
<path id="path3293" d="M67.0808 19.6561C66.6048 20.4487 65.5336 21.2115 64.5794 20.8244L64.3015 20.7557L64.093 20.6182L63.8846 20.3433L63.8151 20.0685L63.6067 19.7249V9.7603H67.0808V9.00436H63.6067V4.74365H63.0508C62.8922 7.0985 60.8621 9.23457 58.3955 9.00436V9.7603H60.5494V19.2438L60.6189 19.9997L60.7579 20.6182L61.1053 21.0993L62.078 21.7865L62.7034 21.9239L63.3982 22.0614C65.0183 22.295 66.6894 21.7979 67.5672 20.3433L67.0808 19.6561Z" fill="#939393"/>
</g>
</g>
</g>
<defs>
<clipPath id="clip0_298_9753">
<rect width="126" height="43" fill="white"/>
</clipPath>
</defs>
</svg>
