<svg width="184" height="33" viewBox="0 0 184 33" fill="none" xmlns="http://www.w3.org/2000/svg">
<g id="embraer 1" clip-path="url(#clip0_264_4147)">
<g id="Clip path group">
<mask id="mask0_264_4147" style="mask-type:luminance" maskUnits="userSpaceOnUse" x="0" y="0" width="184" height="33">
<g id="clip0">
<path id="Vector" d="M184 0H0V33H184V0Z" fill="white"/>
</g>
</mask>
<g mask="url(#mask0_264_4147)">
<g id="Group">
<path id="Vector_2" fill-rule="evenodd" clip-rule="evenodd" d="M43.2137 12.0146C43.2137 14.3921 43.2137 14.3921 43.2137 14.3921C54.225 14.3921 54.225 14.3921 54.225 14.3921C54.225 17.6505 54.225 17.6505 54.225 17.6505C43.2137 17.6505 43.2137 17.6505 43.2137 17.6505C43.2137 20.0284 43.2137 20.0284 43.2137 20.0284C55.2669 20.0284 55.2668 20.0284 55.2668 20.0284C55.2668 23.8152 55.2668 23.8152 55.2668 23.8152C38.7929 23.8152 38.7929 23.8152 38.7929 23.8152C38.7929 8.22776 38.7929 8.22777 38.7929 8.22777C55.2669 8.22777 55.2668 8.22777 55.2668 8.22777C55.2668 12.0146 55.2668 12.0146 55.2668 12.0146H43.2137ZM57.4318 23.8152C57.4318 8.22776 57.4318 8.22777 57.4318 8.22777C64.8014 8.22777 64.8015 8.22777 64.8015 8.22777C70.0013 18.0029 70.0012 18.0029 70.0012 18.0029C75.115 8.22777 75.115 8.22777 75.115 8.22777C82.6566 8.22777 82.6566 8.22777 82.6566 8.22777C82.6566 23.8153 82.6566 23.8152 82.6566 23.8152C78.2358 23.8152 78.2358 23.8152 78.2358 23.8152C78.2358 12.7191 78.2358 12.7191 78.2358 12.7191C72.171 23.8152 72.171 23.8152 72.171 23.8152C67.8362 23.8152 67.8362 23.8152 67.8362 23.8152C61.9387 12.7191 61.9387 12.7191 61.9387 12.7191C61.8527 23.8152 61.8526 23.8152 61.8526 23.8152H57.4318ZM84.8264 23.8152C84.8264 8.22776 84.8264 8.22777 84.8264 8.22777C97.7446 8.22777 97.7446 8.22777 97.7446 8.22777C101.037 8.22777 102.595 9.63673 102.595 12.6311C102.595 14.3041 101.902 15.273 100.43 15.8895C102.251 16.2415 103.03 17.3865 103.03 19.5879C103.03 22.5823 101.644 23.8152 98.4376 23.8152H84.8264ZM98.0887 13.0711C98.0887 12.2786 97.5677 11.7502 96.9608 11.7502C89.2471 11.7502 89.2471 11.7502 89.2471 11.7502C89.2471 14.3041 89.2471 14.3041 89.2471 14.3041C96.9608 14.3041 96.9608 14.3041 96.9608 14.3041C97.6537 14.3041 98.0887 13.8641 98.0887 13.0711ZM98.5236 18.8834C98.5236 18.0029 98.0888 17.4745 97.3097 17.4745C89.2472 17.4745 89.2471 17.4745 89.2471 17.4745C89.2471 20.2924 89.2471 20.2924 89.2471 20.2924C97.3097 20.2924 97.3097 20.2924 97.3097 20.2924C98.0888 20.2924 98.5236 19.7644 98.5236 18.8834ZM137.532 17.4745C134.583 12.0146 134.583 12.0146 134.583 12.0146C131.725 17.4745 131.725 17.4745 131.725 17.4745H137.532ZM123.404 23.8152C131.725 8.22776 131.725 8.22777 131.725 8.22777C137.618 8.22777 137.618 8.22777 137.618 8.22777C145.68 23.8153 145.68 23.8152 145.68 23.8152C140.652 23.8152 140.652 23.8152 140.652 23.8152C139.18 21.2613 139.18 21.2613 139.18 21.2613C129.904 21.2613 129.904 21.2613 129.904 21.2613C128.432 23.8152 128.432 23.8152 128.432 23.8152H123.404ZM168.654 12.1026C168.654 15.9775 168.654 15.9775 168.654 15.9775C177.061 15.9775 177.061 15.9775 177.061 15.9775C178.274 15.9775 178.623 15.361 178.623 13.8641C178.623 12.7191 178.188 12.1026 177.061 12.1026H168.654ZM183.044 13.3356C183.044 15.8895 182.523 17.2105 180.702 17.6505C182.179 18.0909 182.958 19.0599 182.958 20.6449C182.958 23.8152 182.958 23.8152 182.958 23.8152C178.623 23.8152 178.623 23.8152 178.623 23.8152C178.623 21.4373 178.623 21.4373 178.623 21.4373C178.623 20.1164 178.016 19.8524 176.63 19.8524C168.654 19.8524 168.654 19.8524 168.654 19.8524C168.654 23.8153 168.654 23.8152 168.654 23.8152C164.319 23.8152 164.319 23.8152 164.319 23.8152C164.319 8.22776 164.319 8.22777 164.319 8.22777C177.237 8.22777 177.237 8.22777 177.237 8.22777C181.572 8.22777 183.044 9.28425 183.044 13.3356ZM109.186 12.1026C109.186 15.9775 109.186 15.9775 109.186 15.9775C117.507 15.9775 117.507 15.9775 117.507 15.9775C118.721 15.9775 119.069 15.361 119.069 13.8641C119.069 12.7191 118.635 12.1026 117.507 12.1026H109.186ZM123.576 13.3356C123.576 15.8895 122.969 17.2105 121.148 17.6505C122.62 18.0909 123.404 19.0599 123.404 20.6449C123.404 23.8152 123.404 23.8152 123.404 23.8152C119.069 23.8152 119.069 23.8152 119.069 23.8152C119.069 21.4373 119.069 21.4373 119.069 21.4373C119.069 20.1164 118.463 19.8524 117.072 19.8524C109.186 19.8524 109.186 19.8524 109.186 19.8524C109.186 23.8153 109.186 23.8152 109.186 23.8152C104.765 23.8152 104.765 23.8152 104.765 23.8152C104.765 8.22776 104.765 8.22777 104.765 8.22777C117.679 8.22777 117.679 8.22777 117.679 8.22777C122.013 8.22777 123.576 9.28425 123.576 13.3356ZM150.101 12.0146C150.101 14.3921 150.101 14.3921 150.101 14.3921C161.112 14.3921 161.112 14.3921 161.112 14.3921C161.112 17.6505 161.112 17.6505 161.112 17.6505C150.101 17.6505 150.101 17.6505 150.101 17.6505C150.101 20.0284 150.101 20.0284 150.101 20.0284C162.154 20.0284 162.154 20.0284 162.154 20.0284C162.154 23.8152 162.154 23.8152 162.154 23.8152C145.68 23.8152 145.68 23.8152 145.68 23.8152C145.68 8.22776 145.68 8.22777 145.68 8.22777C162.154 8.22777 162.154 8.22777 162.154 8.22777C162.154 12.0146 162.154 12.0146 162.154 12.0146H150.101ZM6.63349 14.8326C25.0096 0.478031 25.0097 0.478027 25.0097 0.478027C31.1653 0.478027 31.1653 0.478027 31.1653 0.478027C18.9448 14.8326 18.9448 14.8326 18.9448 14.8326C31.0792 14.8326 31.0793 14.8326 31.0793 14.8326C31.0793 17.2985 31.0793 17.2985 31.0793 17.2985C18.9448 17.2985 18.9448 17.2985 18.9448 17.2985C31.1652 31.565 31.1653 31.565 31.1653 31.565C25.0096 31.565 25.0097 31.565 25.0097 31.565C6.63358 17.2985 6.63349 17.2985 6.63349 17.2985C0.477849 17.2985 0.477905 17.2985 0.477905 17.2985C2.99178 14.8326 2.99178 14.8326 2.99178 14.8326H6.63349Z" fill="#939393"/>
</g>
</g>
</g>
</g>
<defs>
<clipPath id="clip0_264_4147">
<rect width="184" height="33" fill="white"/>
</clipPath>
</defs>
</svg>
