<svg width="155" height="35" viewBox="0 0 155 35" fill="none" xmlns="http://www.w3.org/2000/svg">
<g id="pure_storage 1" clip-path="url(#clip0_264_4350)">
<g id="Clip path group">
<mask id="mask0_264_4350" style="mask-type:luminance" maskUnits="userSpaceOnUse" x="0" y="0" width="155" height="35">
<g id="clip0">
<path id="Vector" d="M155 0H0V35H155V0Z" fill="white"/>
</g>
</mask>
<g mask="url(#mask0_264_4350)">
<g id="Group">
<g id="Clip path group_2">
<mask id="mask1_264_4350" style="mask-type:luminance" maskUnits="userSpaceOnUse" x="1" y="1" width="154" height="34">
<g id="clip1">
<path id="Vector_2" d="M155 1.34619H1.35962V35H155V1.34619Z" fill="white"/>
</g>
</mask>
<g mask="url(#mask1_264_4350)">
<g id="Group_2">
<g id="Clip path group_3">
<mask id="mask2_264_4350" style="mask-type:luminance" maskUnits="userSpaceOnUse" x="1" y="1" width="154" height="34">
<g id="clip2">
<path id="Vector_3" d="M155 1.34619H1.35962V35H155V1.34619Z" fill="white"/>
</g>
</mask>
<g mask="url(#mask2_264_4350)">
<g id="Group_3">
<g id="Clip path group_4">
<mask id="mask3_264_4350" style="mask-type:luminance" maskUnits="userSpaceOnUse" x="1" y="1" width="154" height="34">
<g id="clip3">
<path id="Vector_4" d="M155 1.34619H1.35962V35H155V1.34619Z" fill="white"/>
</g>
</mask>
<g mask="url(#mask3_264_4350)">
<g id="Group_4">
<path id="Vector_5" d="M17.3331 34.9536H10.726C9.36082 34.9485 8.10147 34.0408 7.4225 32.5723L1.86538 20.5384C1.19966 19.0581 1.19966 17.2559 1.86538 15.7756L7.4225 3.7736C8.10454 2.30882 9.36193 1.40237 10.726 1.39209H21.8404C23.2054 1.39715 24.4649 2.30494 25.1439 3.7736L30.7009 15.7756C31.3924 17.2473 31.3924 19.0667 30.7009 20.5384L29.2669 23.396C28.5852 24.8572 27.3246 25.7539 25.9634 25.7457H19.3563L22.9671 18.1252L19.6123 10.9176H12.9284L9.5736 18.1571L17.3331 34.9536Z" fill="#939393"/>
<path id="Vector_6" d="M41.9944 18.2206C43.1724 18.2206 43.9408 17.7761 43.9408 16.2203C43.9408 14.6645 43.3005 14.2835 42.1738 14.2835H41.3031V18.2206H41.9944ZM41.3031 26.1268H38.23V11.2671H42.5834C45.4005 11.2671 47.0907 12.8865 47.0907 15.9981C47.0907 19.459 45.0675 21.2053 42.1993 21.2053H41.3031V26.1268Z" fill="#939393"/>
<path id="Vector_7" d="M51.9051 11.2671V20.8243C51.9051 22.5071 52.5966 22.9835 53.5697 22.9835C54.4917 22.9835 55.1575 22.3166 55.1575 20.9196V11.2671H58.2049V21.3641C58.2049 24.3169 56.2843 26.1268 53.5185 26.1268C50.4454 26.1268 48.8833 24.6027 48.8833 21.0465V11.2671H51.9051Z" fill="#939393"/>
<path id="Vector_8" d="M71.515 11.2666H79.3769V14.6323H74.6137V16.8867H78.7111V20.2206H74.6137V22.7924H79.505V26.1264H71.515V11.2666Z" fill="#939393"/>
<path id="Vector_9" d="M82.3286 23.3006C83.304 24.0955 84.4396 24.5355 85.6065 24.5707C86.8101 24.5707 88.1417 24.0945 88.1417 21.8084C88.1417 20.0302 86.8614 19.427 85.4272 18.9506C83.6858 18.3791 81.97 17.5536 81.97 14.823C81.97 12.3464 83.5321 10.6953 85.7857 10.6953C87.2506 10.7127 88.6539 11.429 89.7038 12.6957L88.9101 13.8705C87.9625 12.8543 86.9125 12.2193 85.7857 12.2193C84.7614 12.2193 83.4553 12.7591 83.4553 14.6325C83.4553 16.4105 84.6846 16.9186 86.2467 17.49C87.9113 18.1251 89.627 18.9189 89.627 21.7448C89.627 24.5707 88.1162 26.0948 85.5553 26.0948C83.8138 26.0948 82.2005 25.2374 81.7139 24.7295L82.3286 23.3006Z" fill="#939393"/>
<path id="Vector_10" d="M99.48 11.2666V12.7907H95.9204V26.1264H94.5375V12.7907H91.0546V11.2666H99.48Z" fill="#939393"/>
<path id="Vector_11" d="M105.377 24.6342C107.937 24.6342 108.731 21.5543 108.731 18.5379C108.731 15.9025 108.04 12.2511 105.351 12.2511C102.764 12.2511 101.817 15.3628 101.817 18.4108C101.817 21.3321 102.457 24.6342 105.377 24.6342ZM105.223 26.1265C102.201 26.1265 100.383 23.5547 100.383 18.4427C100.383 12.6957 102.995 10.6953 105.402 10.6953C107.937 10.6953 110.165 12.7274 110.165 18.4427C110.165 23.5864 108.245 26.1265 105.223 26.1265Z" fill="#939393"/>
<path id="Vector_12" d="M125.172 20.1257H129.218L127.17 12.8546L125.172 20.1257ZM122.15 26.1268L126.376 11.2671H128.066L132.369 26.1268H130.883L129.577 21.5546H124.865L123.584 26.1268H122.15Z" fill="#939393"/>
<path id="Vector_13" d="M141.639 24.7614C140.486 25.6782 139.141 26.1532 137.772 26.1268C134.699 26.1268 132.804 23.6502 132.804 18.4429C132.804 12.6324 135.441 10.6956 137.772 10.6956C139.316 10.6654 140.777 11.5646 141.69 13.1086L140.691 14.1246C139.923 12.9498 139.001 12.2195 137.772 12.2195C135.569 12.2195 134.238 14.5375 134.238 18.2841C134.238 22.3165 135.364 24.6662 137.9 24.6662C138.736 24.663 139.557 24.3894 140.282 23.8724V19.459H137.618V17.9348H141.665V24.7614H141.639Z" fill="#939393"/>
<path id="Vector_14" d="M144.347 11.2666H150.878V12.7907H145.73V17.8074H150.16V19.2998H145.73V24.6023H151.005V26.1264H144.347V11.2666Z" fill="#939393"/>
<path id="Vector_15" d="M115.646 19.2366H113.827V12.7277H115.415C117.489 12.7277 118.949 13.0134 118.949 15.9664C118.949 18.3477 117.592 19.2366 115.646 19.2366ZM119.077 21.4594C118.796 20.6974 118.616 20.3481 118.232 20.094C119.564 19.3638 120.409 17.9032 120.409 15.6805C120.409 12.7593 118.872 11.2671 116.311 11.2671H112.368V26.1268H113.802V20.6338H115.876C116.022 20.6392 116.167 20.6284 116.311 20.6021H116.286C117.029 20.6021 117.387 21.2053 117.694 21.9992L119.231 26.0633H120.767L119.077 21.4594Z" fill="#939393"/>
<path id="Vector_16" d="M63.4548 18.2206V14.2835H64.2998C65.401 14.2835 66.0413 14.6963 66.0413 16.2203C66.0413 17.7444 65.2986 18.2206 64.1462 18.2206H63.4548ZM68.1413 21.4277C68.0007 20.9469 67.7289 20.5426 67.3729 20.2845C68.4741 19.4273 69.1655 17.9984 69.1655 15.9981C69.1655 12.9181 67.501 11.2671 64.7352 11.2671H60.4329V26.1268H63.4548V21.1736H64.223C64.6328 21.2053 64.8888 21.4911 65.0682 22.0308L66.5022 26.1268H69.7546L68.1413 21.4277Z" fill="#939393"/>
<path id="Vector_17" d="M153.47 12.5369C153.674 12.5369 153.88 12.5052 153.88 12.1876C153.88 11.9335 153.674 11.9018 153.495 11.9018H153.137V12.5369H153.47ZM153.137 13.7434H152.856V11.6161H153.521C153.957 11.6161 154.161 11.8066 154.161 12.2193C154.172 12.5225 153.982 12.7784 153.737 12.7909C153.725 12.7914 153.712 12.7914 153.7 12.7909L154.187 13.7434H153.854L153.393 12.8226H153.111V13.7434H153.137ZM153.445 11.0444C152.767 11.0419 152.215 11.7208 152.214 12.5606C152.214 12.5844 152.214 12.6083 152.215 12.6321C152.249 13.4659 152.822 14.1073 153.494 14.0654C154.167 14.0231 154.685 13.3132 154.651 12.4797C154.618 11.6812 154.089 11.0522 153.445 11.0444ZM153.445 14.5689C152.581 14.5689 151.882 13.7017 151.882 12.6321C151.882 11.5623 152.581 10.6953 153.445 10.6953C154.307 10.6953 155.007 11.5623 155.007 12.6321C155.007 13.7017 154.307 14.5689 153.445 14.5689Z" fill="#939393"/>
</g>
</g>
</g>
</g>
</g>
</g>
</g>
</g>
</g>
</g>
</g>
</g>
</g>
<defs>
<clipPath id="clip0_264_4350">
<rect width="155" height="35" fill="white"/>
</clipPath>
</defs>
</svg>
